<svg xmlns="http://www.w3.org/2000/svg" viewBox="0 0 512 512" role="img" aria-labelledby="title desc">
  <title id="title">Conduit app icon</title>
  <desc id="desc">Two conversation bubbles connected by a curved conduit with a central coupling.</desc>

  <!-- Left speech bubble -->
  <path d="M62 126c0-35.3 28.7-64 64-64h78c35.3 0 64 28.7 64 64v58c0 35.3-28.7 64-64 64h-20l-31 31c-8.2 8.2-22.2 2.4-22.2-9.2V248h-5C90.7 248 62 219.3 62 184z" fill="#2374E1"/>
  <circle cx="116" cy="157" r="10" fill="#FFFFFF"/>
  <circle cx="158" cy="157" r="10" fill="#FFFFFF"/>
  <circle cx="200" cy="157" r="10" fill="#FFFFFF"/>

  <!-- Right speech bubble -->
  <path d="M244 126c0-35.3 28.7-64 64-64h78c35.3 0 64 28.7 64 64v58c0 35.3-28.7 64-64 64h-5v21.8c0 11.6-14 17.4-22.2 9.2l-31-31h-20c-35.3 0-64-28.7-64-64z" fill="#67C23A"/>
  <circle cx="298" cy="157" r="10" fill="#FFFFFF"/>
  <circle cx="340" cy="157" r="10" fill="#FFFFFF"/>
  <circle cx="382" cy="157" r="10" fill="#FFFFFF"/>

  <!-- Curved conduit -->
  <path d="M157 261v15c0 51.9 42.1 94 94 94h10c51.9 0 94-42.1 94-94v-15" fill="none" stroke="#2F3542" stroke-width="34" stroke-linecap="round"/>

  <!-- Coupling -->
  <rect x="231" y="330" width="50" height="72" rx="10" fill="#2F3542"/>
  <rect x="244" y="330" width="24" height="72" rx="6" fill="#444B59"/>
</svg>
